<?xml version="1.0" standalone="no"?><!DOCTYPE svg PUBLIC "-//W3C//DTD SVG 1.1//EN" "http://www.w3.org/Graphics/SVG/1.1/DTD/svg11.dtd"><svg height="100" node-id="1" sillyvg="true" template-height="100" template-width="100" version="1.1" viewBox="0 0 100 100" width="100" xmlns="http://www.w3.org/2000/svg" xmlns:xlink="http://www.w3.org/1999/xlink"><defs node-id="19"></defs><path d="M 78.70 24.60 L 77.60 25.90 L 73.10 34.00 L 71.50 36.20 L 68.40 39.40 L 61.00 44.90 L 58.40 47.70 L 55.30 52.40 L 50.90 62.60 L 47.80 73.30 L 43.20 83.40 L 42.80 84.70 L 43.00 85.40 L 43.70 85.80 L 46.10 85.60 L 47.50 85.10 L 50.10 83.50 L 53.60 78.80 L 55.40 77.10 L 60.70 72.80 L 62.80 70.30 L 63.90 68.50 L 65.90 63.40 L 66.40 60.70 L 66.40 53.90 L 67.10 52.30 L 68.10 51.00 L 71.00 48.70 L 74.40 42.00 L 79.50 27.20 L 79.40 25.10 L 78.70 24.60 Z" fill="#e8ab53" fill-rule="nonzero" node-id="21" stroke="none" target-height="61.200005" target-width="36.7" target-x="42.8" target-y="24.6"></path><path d="M 40.00 32.50 L 34.20 38.20 L 32.30 40.60 L 25.70 50.80 L 23.30 55.50 L 20.30 63.40 L 13.80 74.40 L 11.90 78.90 L 11.70 80.00 L 11.90 80.40 L 12.50 80.30 L 16.20 77.40 L 21.90 74.50 L 28.30 68.80 L 30.80 65.40 L 31.80 63.20 L 33.40 56.40 L 34.50 47.70 L 35.30 45.80 L 38.70 40.80 L 41.00 35.20 L 41.20 33.80 L 41.00 32.10 L 40.80 32.00 L 40.00 32.50 Z" fill="#84c7dc" fill-rule="nonzero" node-id="23" stroke="none" target-height="48.4" target-width="29.5" target-x="11.7" target-y="32"></path><path d="M 78.10 36.90 L 73.30 43.40 L 64.40 57.50 L 63.40 60.20 L 62.00 67.50 L 61.30 69.20 L 55.60 76.90 L 55.30 80.00 L 55.40 80.50 L 55.70 80.60 L 59.80 78.00 L 69.90 65.90 L 72.80 61.60 L 74.20 58.80 L 75.50 54.60 L 75.60 49.60 L 79.00 43.80 L 80.20 38.80 L 79.90 36.30 L 79.00 36.10 L 78.10 36.90 Z" fill="#2f6cac" fill-rule="nonzero" node-id="25" stroke="none" target-height="44.5" target-width="24.899998" target-x="55.3" target-y="36.1"></path><path d="M 60.80 24.20 L 59.80 24.40 L 58.30 25.40 L 49.30 34.00 L 40.80 40.10 L 38.50 43.60 L 32.00 59.80 L 29.10 69.30 L 28.20 75.70 L 28.70 85.90 L 29.00 87.20 L 29.50 87.70 L 30.50 87.20 L 33.40 83.40 L 38.20 72.70 L 48.20 55.10 L 56.30 43.60 L 57.60 40.00 L 58.80 32.60 L 60.90 26.90 L 61.20 24.90 L 60.80 24.20 Z" fill="#18589f" fill-rule="nonzero" node-id="27" stroke="none" target-height="63.499996" target-width="33" target-x="28.2" target-y="24.2"></path><path d="M 76.10 8.00 L 75.40 8.20 L 74.40 9.10 L 70.60 14.20 L 67.30 17.40 L 66.80 18.70 L 65.70 25.60 L 64.90 27.60 L 63.40 29.80 L 53.30 41.10 L 50.80 45.90 L 49.10 53.00 L 48.20 55.00 L 39.50 66.00 L 38.20 68.60 L 36.90 74.80 L 33.80 85.10 L 33.80 86.10 L 39.00 81.30 L 44.70 74.80 L 47.10 69.40 L 51.10 62.10 L 58.80 52.00 L 60.30 49.60 L 61.60 47.00 L 64.50 38.80 L 65.20 37.90 L 68.50 35.50 L 69.10 34.70 L 69.40 33.40 L 69.30 27.70 L 70.00 24.10 L 72.90 17.30 L 76.10 11.20 L 76.70 8.80 L 76.10 8.00 Z" fill="#69b67e" fill-rule="nonzero" node-id="29" stroke="none" target-height="78.1" target-width="42.899998" target-x="33.8" target-y="8"></path><path d="M 59.40 77.80 L 62.70 71.90 L 62.80 65.80 L 63.00 64.30 L 63.60 63.30 L 64.50 62.60 L 68.30 61.10 L 70.60 59.50 L 73.30 54.40 L 74.20 53.30 L 75.30 52.60 L 79.00 51.50 L 81.20 51.30 L 81.40 53.60 L 82.90 55.60 L 83.10 57.30 L 82.10 62.30 L 82.70 67.20 L 82.50 68.20 L 82.10 69.10 L 79.50 72.10 L 78.80 76.80 L 77.40 79.60 L 76.40 80.50 L 75.00 81.00 L 68.90 81.70 L 66.80 82.30 L 63.60 84.30 L 61.90 84.60 L 60.20 84.30 L 59.00 83.70 L 58.20 82.40 L 59.40 77.80 Z" fill="#e7e35c" fill-rule="nonzero" node-id="31" stroke="none" target-height="33.3" target-width="24.899998" target-x="58.2" target-y="51.3"></path><path d="M 22.90 85.10 L 22.80 78.40 L 23.20 76.40 L 25.50 70.50 L 28.20 66.10 L 32.40 61.70 L 38.50 48.30 L 40.00 45.50 L 40.80 44.90 L 41.20 45.00 L 41.40 45.60 L 41.10 51.40 L 39.10 63.00 L 37.60 66.20 L 34.30 71.40 L 33.10 75.50 L 31.90 82.00 L 31.40 83.40 L 25.90 90.70 L 24.00 92.50 L 23.40 92.30 L 22.90 85.10 Z" fill="#e8ab53" fill-rule="nonzero" node-id="33" stroke="none" target-height="47.6" target-width="18.600002" target-x="22.8" target-y="44.9"></path><path d="M 47.60 51.70 L 44.80 55.00 L 43.20 58.80 L 42.90 61.00 L 43.20 67.10 L 42.10 70.70 L 38.00 80.80 L 37.20 85.80 L 37.40 90.80 L 37.70 90.90 L 38.10 90.30 L 40.40 85.40 L 44.90 80.30 L 46.60 77.90 L 48.80 73.40 L 49.30 71.10 L 49.30 68.70 L 48.00 61.50 L 48.30 54.60 L 48.20 52.90 L 47.60 51.70 Z" fill="#f2e8c9" fill-rule="nonzero" node-id="35" stroke="none" target-height="39.2" target-width="12.099998" target-x="37.2" target-y="51.7"></path><path d="M 48.30 83.40 L 47.20 81.20 L 47.00 79.30 L 48.10 73.50 L 49.00 71.10 L 50.60 68.80 L 56.80 62.50 L 58.30 59.10 L 59.80 56.40 L 60.60 55.60 L 61.10 55.50 L 62.30 57.10 L 62.40 58.30 L 62.00 60.30 L 59.70 65.50 L 59.60 69.40 L 58.80 71.70 L 56.40 74.60 L 53.40 76.40 L 52.70 77.20 L 51.60 80.90 L 51.40 85.20 L 51.10 85.90 L 50.40 86.20 L 49.60 86.00 L 49.10 85.50 L 48.30 83.40 Z" fill="#db4427" fill-rule="nonzero" node-id="37" stroke="none" target-height="30.699997" target-width="15.400002" target-x="47" target-y="55.5"></path><path d="M 65.10 47.40 L 63.80 48.40 L 62.80 50.10 L 62.70 51.80 L 63.00 52.30 L 63.80 52.40 L 65.70 51.30 L 66.60 48.30 L 66.50 47.60 L 65.10 47.40 Z" fill="#db4427" fill-rule="nonzero" node-id="39" stroke="none" target-height="5" target-width="3.8999977" target-x="62.7" target-y="47.4"></path><path d="M 63.00 3.90 L 62.00 5.10 L 58.20 15.10 L 56.20 16.50 L 55.20 18.00 L 54.00 21.40 L 52.60 28.00 L 47.10 37.90 L 46.10 40.30 L 44.40 47.40 L 44.20 50.60 L 44.40 51.30 L 44.70 51.30 L 46.10 49.60 L 47.90 46.60 L 49.40 43.20 L 52.40 32.60 L 53.30 30.80 L 56.60 26.10 L 59.00 21.60 L 62.20 11.40 L 63.30 6.10 L 63.30 4.30 L 63.00 3.90 Z" fill="#db4427" fill-rule="nonzero" node-id="41" stroke="none" target-height="47.399998" target-width="19.099998" target-x="44.2" target-y="3.9"></path><path d="M 64.80 16.30 L 62.30 19.50 L 61.80 21.00 L 62.10 22.30 L 64.00 20.90 L 65.00 19.40 L 65.70 17.70 L 65.70 16.70 L 64.80 16.30 Z" fill="#18589f" fill-rule="nonzero" node-id="43" stroke="none" target-height="6" target-width="3.8999977" target-x="61.8" target-y="16.3"></path><path d="M 79.00 19.50 L 78.00 22.20 L 79.20 22.10 L 80.90 20.30 L 81.40 19.20 L 81.30 16.40 L 80.80 16.50 L 80.10 17.20 L 79.00 19.50 Z" fill="#e8ab53" fill-rule="nonzero" node-id="45" stroke="none" target-height="5.800001" target-width="3.4000015" target-x="78" target-y="16.4"></path><path d="M 20.40 67.80 L 16.80 72.70 L 10.40 84.70 L 9.70 86.20 L 9.70 87.30 L 10.80 87.00 L 12.60 85.60 L 16.00 81.10 L 20.10 77.80 L 23.20 74.90 L 23.60 74.00 L 23.60 72.40 L 26.10 68.50 L 27.10 64.20 L 27.00 63.30 L 26.50 63.00 L 25.70 63.20 L 23.20 64.60 L 21.00 66.80 L 20.40 67.80 Z" fill="#df6d5a" fill-rule="nonzero" node-id="47" stroke="none" target-height="24.300003" target-width="17.400002" target-x="9.7" target-y="63"></path></svg>